<?xml version="1.0" encoding="utf-8"?>
<!-- Generator: Adobe Illustrator 17.1.0, SVG Export Plug-In . SVG Version: 6.00 Build 0)  -->
<!DOCTYPE svg PUBLIC "-//W3C//DTD SVG 1.1//EN" "http://www.w3.org/Graphics/SVG/1.1/DTD/svg11.dtd">
<svg version="1.1" id="Layer_1" xmlns="http://www.w3.org/2000/svg" xmlns:xlink="http://www.w3.org/1999/xlink" x="0px" y="0px"
	 viewBox="0 0 36.2 30.5" enable-background="new 0 0 36.2 30.5" xml:space="preserve">
<g>
	<polyline fill="none" stroke="#E4503F" stroke-width="2" stroke-miterlimit="10" points="4.8,4 2,4 2,28.8 18.1,28.8 	"/>
	<polyline fill="none" stroke="#E4503F" stroke-width="2" stroke-miterlimit="10" points="18.1,28.8 34.2,28.8 34.2,4 31.4,4 	"/>
	<path fill="none" stroke="#E4503F" stroke-width="2" stroke-linejoin="bevel" stroke-miterlimit="10" d="M18.1,27.3
		c0,0-2.8-1.7-5-1.7c-2,0-4.4,1.7-5.7,1.7c-1.8,0-2.6-1.7-2.6-1.7v-24c0,0,0.8,1.7,2.6,1.7c1.3,0,3.7-1.7,5.7-1.7c2.1,0,5,1.7,5,1.7
		s2.8-1.7,5-1.7c2,0,4.4,1.7,5.7,1.7c1.8,0,2.6-1.7,2.6-1.7v24c0,0-0.8,1.7-2.6,1.7c-1.3,0-3.7-1.7-5.7-1.7
		C20.9,25.7,18.1,27.3,18.1,27.3z"/>
	<g>
		<path fill="none" stroke="#E4503F" stroke-linecap="square" stroke-linejoin="bevel" stroke-miterlimit="10" d="M20.5,6
			c0.8-0.3,1.7-0.5,2.5-0.5c1.7,0,3.8,1.3,5.1,1.6"/>
		<path fill="none" stroke="#E4503F" stroke-linecap="square" stroke-linejoin="bevel" stroke-miterlimit="10" d="M20.5,8.6
			c0.8-0.3,1.7-0.5,2.5-0.5c1.7,0,3.8,1.3,5.1,1.6"/>
		<path fill="none" stroke="#E4503F" stroke-linecap="square" stroke-linejoin="bevel" stroke-miterlimit="10" d="M20.5,11.1
			c0.8-0.3,1.7-0.5,2.5-0.5c1.7,0,3.8,1.3,5.1,1.6"/>
	</g>
	<g>
		<path fill="none" stroke="#E4503F" stroke-linecap="square" stroke-linejoin="bevel" stroke-miterlimit="10" d="M15.7,15.9
			c-0.8-0.3-1.7-0.5-2.5-0.5c-1.7,0-3.8,1.3-5.1,1.6"/>
		<path fill="none" stroke="#E4503F" stroke-linecap="square" stroke-linejoin="bevel" stroke-miterlimit="10" d="M15.7,18.4
			c-0.8-0.3-1.7-0.5-2.5-0.5c-1.7,0-3.8,1.3-5.1,1.6"/>
		<path fill="none" stroke="#E4503F" stroke-linecap="square" stroke-linejoin="bevel" stroke-miterlimit="10" d="M15.7,20.9
			c-0.8-0.3-1.7-0.5-2.5-0.5c-1.7,0-3.8,1.3-5.1,1.6"/>
	</g>
	<line fill="none" stroke="#E4503F" stroke-width="2.0385" stroke-miterlimit="10" x1="18.1" y1="3.4" x2="18.1" y2="27.3"/>
</g>
</svg>
