<?xml version="1.0" encoding="utf-8"?>
<!-- Generator: Adobe Illustrator 17.1.0, SVG Export Plug-In . SVG Version: 6.00 Build 0)  -->
<!DOCTYPE svg PUBLIC "-//W3C//DTD SVG 1.1//EN" "http://www.w3.org/Graphics/SVG/1.1/DTD/svg11.dtd">
<svg version="1.1" id="Layer_1" xmlns="http://www.w3.org/2000/svg" xmlns:xlink="http://www.w3.org/1999/xlink" x="0px" y="0px"
	 viewBox="0 0 36.2 43.3" enable-background="new 0 0 36.2 43.3" xml:space="preserve">
<g>
	<line fill="none" stroke="#E4503F" stroke-width="2.0385" stroke-miterlimit="10" x1="12.5" y1="34" x2="23.8" y2="34"/>
	<line fill="none" stroke="#E4503F" stroke-width="2.0385" stroke-miterlimit="10" x1="12.5" y1="37.7" x2="23.8" y2="37.7"/>
	<line fill="none" stroke="#E4503F" stroke-width="2.0385" stroke-miterlimit="10" x1="13.7" y1="41.3" x2="22.5" y2="41.3"/>
	<path fill="none" stroke="#E4503F" stroke-width="2.0385" stroke-miterlimit="10" d="M6.4,19.3c0.5,1,1.1,2.1,1.6,3.1
		c0.7,1.4,1.4,2.8,2.1,4.2c0.6,1.2,1.2,2.4,2.2,3.4c0.1,0.1,0.3,0.3,0.4,0.4h10.7c0.6-0.5,1.1-1.1,1.5-1.8c0.9-1.4,1.6-3,2.3-4.5
		c0.8-1.7,1.8-3.3,2.5-5c1.9-4.6,0.9-10-2.7-13.6C23.9,2.3,19,1,14.5,2.3c-4.3,1.3-7.8,4.9-8.7,9.3c-0.3,1.2-0.4,2.5-0.3,3.7
		C5.6,16.7,5.9,18.2,6.4,19.3z"/>
	<polyline fill="none" stroke="#E4503F" stroke-width="1.0192" stroke-miterlimit="10" points="23.1,14.1 21.1,16 19.4,14.3 
		17.9,15.8 16.2,14.2 14.8,15.7 13.1,14.1 	"/>
</g>
</svg>
