<?xml version="1.0" encoding="utf-8"?>
<!-- Generator: Adobe Illustrator 17.1.0, SVG Export Plug-In . SVG Version: 6.00 Build 0)  -->
<!DOCTYPE svg PUBLIC "-//W3C//DTD SVG 1.1//EN" "http://www.w3.org/Graphics/SVG/1.1/DTD/svg11.dtd">
<svg version="1.1" id="Layer_1" xmlns="http://www.w3.org/2000/svg" xmlns:xlink="http://www.w3.org/1999/xlink" x="0px" y="0px"
	 viewBox="0 0 64 64" enable-background="new 0 0 64 64" xml:space="preserve">
<g>
	<g>
		<path fill="#E4503F" d="M35.1,17.1c-0.6-0.1-1.2,0.2-1.5,0.7l-5.7,11.6c-0.2,0.4-0.2,0.9,0.1,1.3c0.2,0.4,0.7,0.6,1.1,0.6h5.7
			c0.4,0,0.7-0.1,0.9-0.4c0.2-0.3,0.4-0.6,0.4-0.9V18.5C36.2,17.8,35.7,17.3,35.1,17.1z"/>
		<path fill="#E4503F" d="M10.9,41.4c-0.2-0.4-0.7-0.6-1.1-0.6H1.7c1.1,3.8,2.9,7.3,5.2,10.3l4.1-8.4C11.2,42.3,11.2,41.8,10.9,41.4
			z"/>
		<path fill="#E4503F" d="M35.8,41.2c-0.2-0.2-0.6-0.4-0.9-0.4H23.2c-0.5,0-1,0.3-1.2,0.7l-8,16.4c5.1,3.6,11.3,5.7,18,5.7
			c1.4,0,2.8-0.1,4.2-0.3V42.1C36.2,41.8,36,41.4,35.8,41.2z"/>
		<path fill="#E4503F" d="M62.3,40.8H46.9c-0.4,0-0.7,0.1-0.9,0.4c-0.2,0.3-0.4,0.6-0.4,0.9v18.4C53.6,56.7,59.8,49.5,62.3,40.8z"/>
		<path fill="#E4503F" d="M45.5,3.5v26.6c0,0.4,0.1,0.7,0.4,0.9c0.2,0.2,0.6,0.4,0.9,0.4h16.7C63.3,19.1,56,8.5,45.5,3.5z"/>
		<path fill="#E4503F" d="M16.9,30.6L31.7,0.4c-17.1,0.1-31,13.9-31.3,31h15.2C16.2,31.4,16.7,31.1,16.9,30.6z"/>
	</g>
</g>
</svg>
